<mxfile host="app.diagrams.net" modified="2023-10-10T01:21:05.434Z" agent="Mozilla/5.0 (X11; Linux x86_64) AppleWebKit/537.36 (KHTML, like Gecko) Chrome/117.0.0.0 Safari/537.36" etag="kRho6GS6oa4p8jVSP99P" version="22.0.4" type="github">
  <diagram name="第 1 页" id="sTUhLF-kgUO84TB5RZIB">
    <mxGraphModel dx="2831" dy="1131" grid="1" gridSize="10" guides="1" tooltips="1" connect="1" arrows="1" fold="1" page="1" pageScale="1" pageWidth="827" pageHeight="1169" math="0" shadow="0">
      <root>
        <mxCell id="0" />
        <mxCell id="1" parent="0" />
        <mxCell id="xI9gyTVhqFCWPQMHHly6-63" value="" style="group" vertex="1" connectable="0" parent="1">
          <mxGeometry x="-610" y="600" width="100" height="100" as="geometry" />
        </mxCell>
        <mxCell id="xI9gyTVhqFCWPQMHHly6-62" value="" style="verticalLabelPosition=bottom;verticalAlign=top;html=1;shape=mxgraph.basic.layered_rect;dx=7;outlineConnect=0;whiteSpace=wrap;rotation=-180;fillColor=#1ba1e2;fontColor=#ffffff;strokeColor=#006EAF;" vertex="1" parent="xI9gyTVhqFCWPQMHHly6-63">
          <mxGeometry width="52.941176470588225" height="52.94117647058822" as="geometry" />
        </mxCell>
        <mxCell id="xI9gyTVhqFCWPQMHHly6-61" value="" style="verticalLabelPosition=bottom;verticalAlign=top;html=1;shape=mxgraph.basic.layered_rect;dx=7;outlineConnect=0;whiteSpace=wrap;rotation=-180;fillColor=#0050ef;fontColor=#ffffff;strokeColor=#001DBC;" vertex="1" parent="xI9gyTVhqFCWPQMHHly6-63">
          <mxGeometry x="5.88235294117647" y="5.88235294117647" width="52.941176470588225" height="52.94117647058822" as="geometry" />
        </mxCell>
        <mxCell id="xI9gyTVhqFCWPQMHHly6-60" value="" style="verticalLabelPosition=bottom;verticalAlign=top;html=1;shape=mxgraph.basic.layered_rect;dx=7;outlineConnect=0;whiteSpace=wrap;rotation=-180;fillColor=#dae8fc;strokeColor=#6c8ebf;" vertex="1" parent="xI9gyTVhqFCWPQMHHly6-63">
          <mxGeometry x="11.76470588235294" y="11.76470588235294" width="52.941176470588225" height="52.94117647058822" as="geometry" />
        </mxCell>
        <mxCell id="xI9gyTVhqFCWPQMHHly6-50" value="" style="verticalLabelPosition=bottom;verticalAlign=top;html=1;shape=mxgraph.basic.layered_rect;dx=7;outlineConnect=0;whiteSpace=wrap;rotation=-180;fillColor=#d5e8d4;strokeColor=#82b366;gradientColor=#97d077;" vertex="1" parent="xI9gyTVhqFCWPQMHHly6-63">
          <mxGeometry x="17.64705882352941" y="17.647058823529406" width="52.941176470588225" height="52.94117647058822" as="geometry" />
        </mxCell>
        <mxCell id="xI9gyTVhqFCWPQMHHly6-51" value="" style="verticalLabelPosition=bottom;verticalAlign=top;html=1;shape=mxgraph.basic.layered_rect;dx=7;outlineConnect=0;whiteSpace=wrap;rotation=-180;fillColor=#cdeb8b;strokeColor=#36393d;" vertex="1" parent="xI9gyTVhqFCWPQMHHly6-63">
          <mxGeometry x="23.52941176470588" y="23.52941176470588" width="52.941176470588225" height="52.94117647058822" as="geometry" />
        </mxCell>
        <mxCell id="xI9gyTVhqFCWPQMHHly6-52" value="" style="verticalLabelPosition=bottom;verticalAlign=top;html=1;shape=mxgraph.basic.layered_rect;dx=7;outlineConnect=0;whiteSpace=wrap;rotation=-180;fillColor=#d5e8d4;strokeColor=#82b366;" vertex="1" parent="xI9gyTVhqFCWPQMHHly6-63">
          <mxGeometry x="29.41176470588235" y="29.411764705882344" width="52.941176470588225" height="52.94117647058822" as="geometry" />
        </mxCell>
        <mxCell id="xI9gyTVhqFCWPQMHHly6-53" value="" style="verticalLabelPosition=bottom;verticalAlign=top;html=1;shape=mxgraph.basic.layered_rect;dx=7;outlineConnect=0;whiteSpace=wrap;rotation=-180;fillColor=#f0a30a;fontColor=#000000;strokeColor=#BD7000;" vertex="1" parent="xI9gyTVhqFCWPQMHHly6-63">
          <mxGeometry x="35.29411764705882" y="35.29411764705881" width="52.941176470588225" height="52.94117647058822" as="geometry" />
        </mxCell>
        <mxCell id="xI9gyTVhqFCWPQMHHly6-54" value="" style="verticalLabelPosition=bottom;verticalAlign=top;html=1;shape=mxgraph.basic.layered_rect;dx=7;outlineConnect=0;whiteSpace=wrap;rotation=-180;fillColor=#fa6800;fontColor=#000000;strokeColor=#C73500;" vertex="1" parent="xI9gyTVhqFCWPQMHHly6-63">
          <mxGeometry x="41.17647058823529" y="41.17647058823529" width="52.941176470588225" height="52.94117647058822" as="geometry" />
        </mxCell>
        <mxCell id="xI9gyTVhqFCWPQMHHly6-55" value="" style="verticalLabelPosition=bottom;verticalAlign=top;html=1;shape=mxgraph.basic.layered_rect;dx=7;outlineConnect=0;whiteSpace=wrap;rotation=-180;fillColor=#e51400;strokeColor=#B20000;fontColor=#ffffff;" vertex="1" parent="xI9gyTVhqFCWPQMHHly6-63">
          <mxGeometry x="47.05882352941176" y="47.05882352941176" width="52.941176470588225" height="52.94117647058822" as="geometry" />
        </mxCell>
        <mxCell id="xI9gyTVhqFCWPQMHHly6-68" style="edgeStyle=orthogonalEdgeStyle;rounded=0;orthogonalLoop=1;jettySize=auto;html=1;exitX=0;exitY=0;exitDx=26.5;exitDy=73.5;exitPerimeter=0;" edge="1" parent="xI9gyTVhqFCWPQMHHly6-63" source="xI9gyTVhqFCWPQMHHly6-67">
          <mxGeometry relative="1" as="geometry">
            <mxPoint x="27" y="380" as="targetPoint" />
          </mxGeometry>
        </mxCell>
        <mxCell id="xI9gyTVhqFCWPQMHHly6-69" style="edgeStyle=orthogonalEdgeStyle;rounded=0;orthogonalLoop=1;jettySize=auto;html=1;exitX=0;exitY=0;exitDx=23.5;exitDy=0;exitPerimeter=0;" edge="1" parent="xI9gyTVhqFCWPQMHHly6-63" source="xI9gyTVhqFCWPQMHHly6-67">
          <mxGeometry relative="1" as="geometry">
            <mxPoint x="180" y="-120" as="targetPoint" />
          </mxGeometry>
        </mxCell>
        <mxCell id="xI9gyTVhqFCWPQMHHly6-67" value="" style="shape=cube;whiteSpace=wrap;html=1;boundedLbl=1;backgroundOutline=1;darkOpacity=0.05;darkOpacity2=0.1;size=53;opacity=30;strokeColor=#000000;" vertex="1" parent="xI9gyTVhqFCWPQMHHly6-63">
          <mxGeometry width="100" height="100" as="geometry" />
        </mxCell>
      </root>
    </mxGraphModel>
  </diagram>
</mxfile>
